<?xml version="1.0" encoding="UTF-8" standalone="no"?>
<svg xmlns:rdf="http://www.w3.org/1999/02/22-rdf-syntax-ns#" xmlns="http://www.w3.org/2000/svg" height="35mm" width="71mm" version="1.1" xmlns:cc="http://creativecommons.org/ns#" xmlns:dc="http://purl.org/dc/elements/1.1/" viewBox="0 0 71 35">
<g transform="translate(0,-262)">
<path stroke-width=".353" d="m2.44 295c-0.104-0.169-0.0033-2.29 0.225-4.71l0.414-4.4 7.76-0.176c7.2-0.164 7.77-0.223 7.88-0.831 0.201-1.05-0.313-1.26-3.42-1.45-4.94-0.297-7.97-2.1-10-5.93-0.634-1.2-0.79-2.07-0.796-4.49-0.009-3.47 0.656-5.19 2.97-7.67l1.4-1.5h13.2l-4.4 4.41c-5.29 5.31-5.32 5.53-0.648 5.85 6.77 0.47 10.9 4.48 10.9 10.5 0 4.16-2.4 7.91-6.16 9.59-1.74 0.779-2.33 0.832-10.5 0.953-4.78 0.0703-8.78-0.0103-8.88-0.179zm31.2-0.46c0-0.364 0.397-5.06 0.882-10.4 0.485-5.38 0.882-10.1 0.882-10.4 0-0.596-0.372-0.648-4.62-0.648-4.62 0-4.62-0.001-4.43-0.794 0.106-0.437 0.303-2.5 0.439-4.59l0.247-3.79h29.2l-0.23 2.73c-0.126 1.5-0.322 3.57-0.435 4.59l-0.205 1.85h-9.04l-0.235 2.2c-0.129 1.21-0.578 6.17-0.998 11l-0.763 8.82-5.38 0.0662c-5.05 0.0621-5.38 0.0254-5.38-0.595zm23.1 0.208c-0.103-0.267 0.185-4.67 0.64-9.78l0.827-9.3 4.68-0.0985 4.68-0.0985-0.222 2.22c-0.122 1.22-0.484 5.61-0.805 9.76l-0.583 7.54-4.51 0.126c-3.59 0.1-4.55 0.0272-4.7-0.36zm1.74-22.7c0.11-0.551 0.312-2.62 0.447-4.59l0.247-3.58h9.5l-0.195 1.15c-0.107 0.631-0.303 2.69-0.434 4.59l-0.239 3.44h-9.52z"/>
</g>
</svg>
