<?xml version="1.0" encoding="UTF-8" standalone="no"?>
<svg xmlns:rdf="http://www.w3.org/1999/02/22-rdf-syntax-ns#" xmlns="http://www.w3.org/2000/svg" height="35mm" width="71mm" version="1.1" xmlns:cc="http://creativecommons.org/ns#" xmlns:dc="http://purl.org/dc/elements/1.1/" viewBox="0 0 71 35">
<g transform="translate(0,-262)">
<path stroke-width=".0351" d="m17.5 297c-1.1-0.106-1.99-0.362-3.01-0.858-0.918-0.449-1.66-0.99-2.39-1.75-1.25-1.29-2.01-2.83-2.32-4.66-0.0555-0.331-0.0631-0.722-0.0738-3.8l-0.0119-3.43h-8.48l0.00901-2.89 0.00901-2.89 2.28-0.0111c1.26-0.006 4.45-0.00021 7.1 0.0131l4.82 0.0241 0.0094 6.1 0.0094 6.1 0.0825 0.246c0.325 0.967 1.02 1.65 1.96 1.92 0.364 0.105 1.1 0.114 1.46 0.0182 0.981-0.266 1.74-1 2.04-2l0.0796-0.257 0.0098-6.03 0.0098-6.03 0.848-0.0231c0.466-0.0127 2.41-0.0231 4.32-0.0231h3.47l0.0125-3.33c0.0139-3.69 0.0082-3.59 0.256-4.56 0.751-2.96 3.05-5.31 6-6.15 2.94-0.838 6.15 0.0107 8.34 2.2 1.47 1.47 2.33 3.35 2.49 5.44 0.021 0.279 0.0432 0.512 0.0495 0.519 0.0063 0.006 0.0211-0.182 0.033-0.419 0.0542-1.08 0.344-2.17 0.85-3.21 1.31-2.68 3.93-4.48 6.9-4.76 2.5-0.231 5 0.664 6.79 2.43 1.2 1.18 2.05 2.73 2.38 4.31 0.159 0.766 0.177 1.07 0.177 2.92v1.75h-5.7l-0.000702-1.52c-0.000387-0.835-0.0159-1.62-0.0344-1.75-0.275-1.9-2.28-3-4-2.19-0.788 0.373-1.31 1.01-1.56 1.88-0.0728 0.258-0.0746 0.33-0.0858 3.35l-0.0114 3.08h17.2v5.72h-17.2v14.2h-5.72v-14.2h-11.4v14.3h-5.72v-14.3h-2.84l-0.0136 3.33c-0.012 2.94-0.0206 3.37-0.0742 3.7-0.268 1.63-0.926 3.14-1.89 4.34-0.31 0.384-0.881 0.95-1.29 1.28-1.22 0.981-2.63 1.59-4.2 1.82-0.444 0.0642-1.48 0.091-1.91 0.0494zm29.4-21.6v-1.4h-5.72l-0.0132-1.69c-0.015-1.93-0.0174-1.95-0.331-2.59-0.142-0.289-0.211-0.381-0.518-0.686-0.303-0.301-0.403-0.377-0.688-0.519-0.477-0.237-0.799-0.314-1.32-0.313-0.352 0.00035-0.473 0.0157-0.73 0.0924-1.05 0.311-1.78 1.07-2.03 2.1-0.0662 0.276-0.0693 0.425-0.0695 3.35l-0.000246 3.06h11.4z"/>
</g>
</svg>
